<svg width="40" height="40" fill="none" xmlns="http://www.w3.org/2000/svg"><rect width="40" height="40" rx="8" fill="#fff"/><path d="M6 6.044v29.5s8.5.996 8.5-5.504-8-5.996-8-5.996 10-.505 10-9.503S6 6.044 6 6.044Z" stroke="#000" stroke-width="2.5"/><path d="M29.004 5.989c-1-1.5-2.5-.95-3-.564-.771.595-1.765 2.196-.53 3.466.116.12 1 .933 1 .933m6.5 6.067-6.5-6.067m5.868 2.067c-1.49 1.522-2.869 3-4.369 4-1.5 1-3.002-.104-3.487-.978-.486-.874-.482-2-.013-3.022.469-1.02 2-2.067 2-2.067" stroke="#000" stroke-width="2"/><path d="M27 20.04c-4.418 0-8.142 3.583-8 8 .138 4.28 3.718 7.5 8 7.5s8.112-3.225 8.25-7.505c.142-4.416-3.832-7.996-8.25-7.996Z" stroke="#000" stroke-width="2.2"/></svg>