<svg width="40" height="40" viewBox="0 0 40 40" fill="none" xmlns="http://www.w3.org/2000/svg">
<rect width="40" height="40" rx="8" fill="white"/>
<path d="M6 6.04409V35.5441C6 35.5441 14.5 36.5402 14.5 30.0402C14.5 23.5402 6.5 24.0441 6.5 24.0441C6.5 24.0441 16.5 23.5391 16.5 14.5411C16.5 5.54318 6 6.04409 6 6.04409Z" stroke="black" stroke-width="2.5"/>
<path d="M29.0037 5.98884C28.0037 4.4894 26.5038 5.03932 26.0037 5.42506C25.2329 6.01964 24.2387 7.6209 25.4732 8.89093C25.5898 9.01092 26.4732 9.82427 26.4732 9.82427M32.9732 15.8909L26.4732 9.82427M32.342 11.8909C30.8511 13.4131 29.4731 14.8909 27.9732 15.8909C26.4733 16.8909 24.9712 15.787 24.4856 14.913C24 14.0391 24.0039 12.9131 24.4732 11.8909C24.9418 10.8702 26.4732 9.82427 26.4732 9.82427" stroke="black" stroke-width="2"/>
<path d="M27 20.0391C22.5817 20.0391 18.8576 23.6231 19 28.0391C19.1381 32.3193 22.7176 35.5391 27 35.5391C31.2824 35.5391 35.1118 32.3148 35.2498 28.0345C35.3923 23.6186 31.4183 20.0391 27 20.0391Z" stroke="black" stroke-width="2.2"/>
</svg>
